# xmcd
# 
# Track frame offsets:
#     150
#     29480
#     43495
#     62097
#     84622
#     109185
#     138007
#     154792
#     171170
#     181195
# 
# Disc length: 2626
# 
# Revision: 1
# Processed by: cddbd v1.5.2PL0 Copyright (c) Steve Scherf et al.
# Submitted via: BonkEnc v1.0.8
# 
DISCID=840a400a
DTITLE=辛島文雄 - Etranger
DYEAR=1985
DGENRE=Contemporary Jazz
TTITLE0=Border Town
TTITLE1=Art Museum
TTITLE2=Afternoon Dream
TTITLE3=Flower Market
TTITLE4=Elegant Evening
TTITLE5=Brother "J"
TTITLE6=Gare Du Nord
TTITLE7=A Child In The Wind
TTITLE8=Starting Again
TTITLE9=I Used To Be Alone
EXTD=YEAR: 1986
EXTT0=
EXTT1=
EXTT2=
EXTT3=
EXTT4=
EXTT5=
EXTT6=
EXTT7=
EXTT8=
EXTT9=
PLAYORDER=
